<?xml version="1.0" encoding="UTF-8"?>
<svg width="512" height="512" viewBox="0 0 512 512" xmlns="http://www.w3.org/2000/svg">
  <rect width="512" height="512" rx="96" fill="#0284c7"/>
  <g fill="#ffffff">
    <path d="M256 112c-79.53 0-144 64.47-144 144s64.47 144 144 144 144-64.47 144-144-64.47-144-144-144zm0 268c-68.23 0-124-55.77-124-124s55.77-124 124-124 124 55.77 124 124-55.77 124-124 124z"/>
    <path d="M310 280h-40v-88c0-5.52-4.48-10-10-10s-10 4.48-10 10v98c0 5.52 4.48 10 10 10h50c5.52 0 10-4.48 10-10s-4.48-10-10-10z"/>
    <path d="M304 130l-48-48-48 48-48-48v50h192v-50l-48 48z"/>
    <path d="M362 362l-40-40-20 20 20 20h40v-40l-20 20z"/>
    <path d="M170 362l20-20-20-20-40 40v40h40l20-20z"/>
    <path d="M197.73 367.64c2.4 4.77 8.25 6.72 13.09 4.32 17.6-8.8 32.8-21.6 44.8-37.92 12 16.32 27.2 29.12 44.8 37.92 4.77 2.4 10.69.48 13.09-4.32 2.4-4.8.48-10.64-4.32-13.04-20.64-10.4-38.08-28.32-48-50.56h-10.4c-9.92 22.24-27.36 40.16-48 50.56-4.77 2.4-6.72 8.24-4.32 13.04z"/>
  </g>
</svg>